<svg width="39" height="13" viewBox="0 0 39 13" fill="none" xmlns="http://www.w3.org/2000/svg">
<path d="M5.34375 4.30859C5.27344 4.48047 5.21094 4.63672 5.15625 4.77734C5.10938 4.91797 5.06641 5.04297 5.02734 5.15234C4.98828 5.27734 4.95312 5.38672 4.92188 5.48047C4.89062 5.58984 4.85547 5.71484 4.81641 5.85547C4.77734 5.98047 4.72656 6.13672 4.66406 6.32422C4.60938 6.50391 4.54297 6.71875 4.46484 6.96875C4.40234 6.59375 4.28906 6.29688 4.125 6.07812C3.96094 5.85156 3.79297 5.67578 3.62109 5.55078C3.41797 5.41016 3.19922 5.30859 2.96484 5.24609C2.54297 5.17578 2.23828 5.18359 2.05078 5.26953C1.86328 5.35547 1.73828 5.46484 1.67578 5.59766C1.64453 5.65234 1.60938 5.72266 1.57031 5.80859C1.53906 5.88672 1.51172 5.96875 1.48828 6.05469C1.47266 6.14062 1.46875 6.22656 1.47656 6.3125C1.48438 6.39844 1.51953 6.46875 1.58203 6.52344C1.62109 6.5625 1.72266 6.61719 1.88672 6.6875C2.05078 6.75 2.24609 6.82422 2.47266 6.91016C2.70703 6.98828 2.95312 7.07422 3.21094 7.16797C3.47656 7.26172 3.72656 7.35547 3.96094 7.44922C4.19531 7.54297 4.39844 7.63672 4.57031 7.73047C4.74219 7.82422 4.85547 7.91016 4.91016 7.98828C4.95703 8.06641 5.00781 8.17188 5.0625 8.30469C5.125 8.42969 5.16797 8.57031 5.19141 8.72656C5.22266 8.875 5.23047 9.03125 5.21484 9.19531C5.20703 9.35156 5.16406 9.50781 5.08594 9.66406C5.00781 9.82031 4.88281 9.96484 4.71094 10.0977C4.54688 10.2305 4.32422 10.3398 4.04297 10.4258C3.71484 10.5273 3.39844 10.5547 3.09375 10.5078C2.78906 10.4609 2.50781 10.3906 2.25 10.2969C2 10.2031 1.78125 10.1133 1.59375 10.0273C1.40625 9.93359 1.27344 9.89453 1.19531 9.91016C1.10938 9.92578 1.01172 9.96875 0.902344 10.0391C0.792969 10.1094 0.6875 10.1836 0.585938 10.2617C0.492188 10.332 0.410156 10.3984 0.339844 10.4609C0.269531 10.5156 0.234375 10.5352 0.234375 10.5195C0.234375 10.5039 0.246094 10.457 0.269531 10.3789C0.300781 10.3008 0.332031 10.207 0.363281 10.0977C0.402344 9.98047 0.4375 9.85547 0.46875 9.72266C0.507812 9.58203 0.535156 9.44922 0.550781 9.32422C0.566406 9.22266 0.585938 9.09766 0.609375 8.94922C0.625 8.81641 0.644531 8.65625 0.667969 8.46875C0.699219 8.27344 0.734375 8.03906 0.773438 7.76562C0.8125 7.96875 0.867188 8.14453 0.9375 8.29297C1.01562 8.44141 1.08984 8.57031 1.16016 8.67969C1.24609 8.80469 1.32812 8.91016 1.40625 8.99609C1.52344 9.10547 1.66016 9.20703 1.81641 9.30078C1.98047 9.39453 2.14453 9.47656 2.30859 9.54688C2.47266 9.60938 2.62891 9.64844 2.77734 9.66406C2.92578 9.67969 3.05078 9.66406 3.15234 9.61719C3.25391 9.57031 3.33984 9.48438 3.41016 9.35938C3.48828 9.23438 3.54297 9.09766 3.57422 8.94922C3.60547 8.80078 3.61719 8.66016 3.60938 8.52734C3.60156 8.38672 3.56641 8.27344 3.50391 8.1875C3.45703 8.13281 3.34766 8.0625 3.17578 7.97656C3.01172 7.89062 2.8125 7.79688 2.57812 7.69531C2.35156 7.59375 2.10938 7.48828 1.85156 7.37891C1.60156 7.26953 1.36328 7.16016 1.13672 7.05078C0.917969 6.93359 0.734375 6.82422 0.585938 6.72266C0.445312 6.61328 0.367188 6.51562 0.351562 6.42969C0.335938 6.30469 0.324219 6.16797 0.316406 6.01953C0.308594 5.86328 0.316406 5.71094 0.339844 5.5625C0.371094 5.40625 0.425781 5.25781 0.503906 5.11719C0.589844 4.97656 0.714844 4.85938 0.878906 4.76562C0.988281 4.70312 1.13281 4.65625 1.3125 4.625C1.49219 4.59375 1.69141 4.57812 1.91016 4.57812C2.12891 4.57031 2.35547 4.57812 2.58984 4.60156C2.82422 4.61719 3.04688 4.64062 3.25781 4.67188C3.47656 4.69531 3.67188 4.72656 3.84375 4.76562C4.02344 4.80469 4.16016 4.83984 4.25391 4.87109C4.36328 4.91016 4.48047 4.91406 4.60547 4.88281C4.71484 4.85938 4.83203 4.80859 4.95703 4.73047C5.08203 4.65234 5.21094 4.51172 5.34375 4.30859ZM5.05078 5.59766C5.28516 5.61328 5.49219 5.625 5.67188 5.63281C5.85938 5.64062 6.01562 5.64844 6.14062 5.65625C6.28125 5.66406 6.40625 5.66797 6.51562 5.66797C6.625 5.66797 6.75 5.66406 6.89062 5.65625C7.01562 5.64844 7.16797 5.63672 7.34766 5.62109C7.53516 5.59766 7.75 5.56641 7.99219 5.52734C7.80469 5.64453 7.65234 5.75391 7.53516 5.85547C7.42578 5.94922 7.33984 6.03516 7.27734 6.11328C7.20703 6.19922 7.16016 6.27734 7.13672 6.34766C7.12109 6.41016 7.10547 6.53516 7.08984 6.72266C7.08203 6.90234 7.07422 7.11328 7.06641 7.35547C7.06641 7.58984 7.07031 7.83984 7.07812 8.10547C7.08594 8.37109 7.09766 8.61328 7.11328 8.83203C7.12891 9.04297 7.15234 9.22266 7.18359 9.37109C7.21484 9.51172 7.25391 9.57812 7.30078 9.57031C7.36328 9.51562 7.46484 9.33203 7.60547 9.01953C7.66016 8.88672 7.72656 8.71875 7.80469 8.51562C7.88281 8.30469 7.97266 8.05078 8.07422 7.75391C8.17578 7.44922 8.28906 7.09375 8.41406 6.6875C8.54688 6.28125 8.69531 5.80859 8.85938 5.26953H9.87891C9.91016 5.80078 9.94531 6.26562 9.98438 6.66406C10.0234 7.0625 10.0625 7.41016 10.1016 7.70703C10.1406 7.99609 10.1758 8.24219 10.207 8.44531C10.2461 8.64062 10.2852 8.80078 10.3242 8.92578C10.4102 9.22266 10.4961 9.38281 10.582 9.40625C10.6523 9.39062 10.7266 9.30078 10.8047 9.13672C10.8906 8.97266 10.9688 8.76953 11.0391 8.52734C11.1172 8.28516 11.1875 8.02344 11.25 7.74219C11.3125 7.45312 11.3672 7.18359 11.4141 6.93359C11.4609 6.68359 11.4922 6.46484 11.5078 6.27734C11.5234 6.08984 11.5234 5.97266 11.5078 5.92578C11.4844 5.87891 11.4375 5.8125 11.3672 5.72656C11.3047 5.65625 11.2188 5.57031 11.1094 5.46875C11.0078 5.36719 10.8672 5.24609 10.6875 5.10547C10.9062 5.14453 11.1133 5.17188 11.3086 5.1875C11.5117 5.19531 11.6914 5.20312 11.8477 5.21094C12.0273 5.21875 12.1914 5.21875 12.3398 5.21094C12.4961 5.21094 12.6875 5.20703 12.9141 5.19922C13.1094 5.19141 13.3516 5.1875 13.6406 5.1875C13.9375 5.1875 14.2852 5.17969 14.6836 5.16406C14.332 5.27344 14.0508 5.37891 13.8398 5.48047C13.6367 5.57422 13.4805 5.66406 13.3711 5.75C13.2383 5.84375 13.1445 5.93359 13.0898 6.01953C13.0352 6.13672 12.9492 6.38281 12.832 6.75781C12.7852 6.91406 12.7266 7.10938 12.6562 7.34375C12.5859 7.57031 12.5039 7.83984 12.4102 8.15234C12.3164 8.46484 12.2109 8.82812 12.0938 9.24219C11.9766 9.64844 11.8438 10.1133 11.6953 10.6367C11.6094 10.6211 11.5195 10.6133 11.4258 10.6133C11.3398 10.6055 11.2578 10.6016 11.1797 10.6016H10.9102C10.8164 10.6094 10.7148 10.6172 10.6055 10.625C10.5117 10.6328 10.4023 10.6445 10.2773 10.6602C10.1523 10.6758 10.0156 10.6953 9.86719 10.7188L9.16406 7.87109L8.01562 10.7188L6.70312 10.6836C6.53906 9.80078 6.40625 9.09766 6.30469 8.57422C6.21094 8.04297 6.13281 7.63672 6.07031 7.35547C6 7.02734 5.95312 6.79688 5.92969 6.66406C5.89062 6.52344 5.83203 6.38672 5.75391 6.25391C5.69141 6.14453 5.60156 6.03125 5.48438 5.91406C5.36719 5.78906 5.22266 5.68359 5.05078 5.59766ZM14.3555 6.25391C14.3945 6.20703 14.418 6.12109 14.4258 5.99609C14.4414 5.86328 14.4727 5.71484 14.5195 5.55078C14.5742 5.38672 14.6641 5.21484 14.7891 5.03516C14.9141 4.85547 15.1172 4.6875 15.3984 4.53125C15.6719 4.375 15.9375 4.28125 16.1953 4.25C16.4531 4.21875 16.6992 4.23047 16.9336 4.28516C17.168 4.33984 17.3867 4.42578 17.5898 4.54297C17.8008 4.66016 17.9922 4.78906 18.1641 4.92969C18.2812 5.02344 18.375 5.16016 18.4453 5.33984C18.5156 5.51172 18.5703 5.70703 18.6094 5.92578C18.6484 6.14453 18.6758 6.375 18.6914 6.61719C18.7148 6.85156 18.7305 7.08203 18.7383 7.30859C18.7461 7.52734 18.75 7.73047 18.75 7.91797C18.7578 8.09766 18.7734 8.24609 18.7969 8.36328C18.8281 8.53516 18.8828 8.68359 18.9609 8.80859C19.0391 8.92578 19.125 9.02734 19.2188 9.11328C19.3125 9.19141 19.4062 9.25391 19.5 9.30078C19.5938 9.34766 19.6758 9.38281 19.7461 9.40625C19.793 9.42969 19.8359 9.44531 19.875 9.45312C19.9531 9.48438 20.0078 9.48438 20.0391 9.45312C19.9922 9.5625 19.9492 9.65625 19.9102 9.73438C19.8711 9.8125 19.8398 9.87891 19.8164 9.93359C19.7852 9.99609 19.7578 10.0469 19.7344 10.0859C19.7109 10.1328 19.6836 10.1758 19.6523 10.2148C19.6289 10.2539 19.5977 10.2969 19.5586 10.3438C19.5195 10.3906 19.4805 10.4414 19.4414 10.4961C19.3398 10.457 19.2422 10.4102 19.1484 10.3555C19.0625 10.3008 18.9844 10.25 18.9141 10.2031C18.8281 10.1484 18.75 10.0938 18.6797 10.0391C18.6094 9.98438 18.543 9.92188 18.4805 9.85156C18.4258 9.78906 18.3672 9.72266 18.3047 9.65234C18.25 9.58203 18.2031 9.50391 18.1641 9.41797C18.1172 9.51953 18.0039 9.66406 17.8242 9.85156C17.6523 10.0391 17.4258 10.2109 17.1445 10.3672C16.8633 10.5156 16.5352 10.6211 16.1602 10.6836C15.793 10.7461 15.3867 10.7031 14.9414 10.5547C14.7461 10.4922 14.5625 10.4023 14.3906 10.2852C14.2188 10.1602 14.0703 10.0117 13.9453 9.83984C13.8281 9.66797 13.7422 9.47266 13.6875 9.25391C13.6406 9.02734 13.6445 8.77734 13.6992 8.50391C13.7539 8.23047 13.8516 8 13.9922 7.8125C14.1328 7.625 14.3008 7.47266 14.4961 7.35547C14.6914 7.23828 14.9102 7.14844 15.1523 7.08594C15.3945 7.02344 15.6445 6.98047 15.9023 6.95703C16.1055 6.94922 16.3086 6.96094 16.5117 6.99219C16.6836 7.02344 16.8633 7.08203 17.0508 7.16797C17.2383 7.24609 17.3984 7.36719 17.5312 7.53125C17.5234 7.11719 17.5078 6.78906 17.4844 6.54688C17.4688 6.29688 17.4531 6.10547 17.4375 5.97266C17.4062 5.81641 17.3789 5.70703 17.3555 5.64453C17.3164 5.58984 17.2734 5.52734 17.2266 5.45703C17.1875 5.38672 17.1367 5.32422 17.0742 5.26953C17.0117 5.20703 16.9336 5.15625 16.8398 5.11719C16.7461 5.07812 16.6367 5.0625 16.5117 5.07031C16.3789 5.07812 16.2734 5.11328 16.1953 5.17578C16.1172 5.23828 16.0547 5.3125 16.0078 5.39844C15.9688 5.47656 15.9453 5.5625 15.9375 5.65625C15.9297 5.75 15.9336 5.83203 15.9492 5.90234C15.9648 5.94922 15.9883 6 16.0195 6.05469C16.0508 6.10156 16.0938 6.15234 16.1484 6.20703C16.2031 6.26172 16.2773 6.30859 16.3711 6.34766C16.1914 6.37109 16.0312 6.39062 15.8906 6.40625C15.75 6.41406 15.6289 6.42578 15.5273 6.44141C15.4102 6.45703 15.3086 6.46875 15.2227 6.47656C15.1367 6.48438 15.0352 6.5 14.918 6.52344C14.8164 6.53906 14.6914 6.55859 14.543 6.58203C14.3945 6.60547 14.2227 6.63672 14.0273 6.67578C14.0742 6.62109 14.1172 6.57031 14.1562 6.52344C14.1953 6.46875 14.2305 6.42188 14.2617 6.38281C14.293 6.33594 14.3242 6.29297 14.3555 6.25391ZM16.1133 7.64844C15.9727 7.65625 15.832 7.69141 15.6914 7.75391C15.5508 7.80859 15.4258 7.89062 15.3164 8C15.207 8.10156 15.1133 8.22266 15.0352 8.36328C14.9648 8.49609 14.9297 8.64453 14.9297 8.80859C14.9297 8.97266 14.9688 9.11719 15.0469 9.24219C15.1328 9.35938 15.2422 9.45703 15.375 9.53516C15.5156 9.61328 15.6641 9.66016 15.8203 9.67578C15.9844 9.69141 16.1445 9.67578 16.3008 9.62891C16.4492 9.57422 16.5898 9.48828 16.7227 9.37109C16.8555 9.24609 16.9688 9.11328 17.0625 8.97266C17.1562 8.82422 17.2227 8.67969 17.2617 8.53906C17.3008 8.39062 17.3047 8.26953 17.2734 8.17578C17.2109 7.97266 17.0703 7.83203 16.8516 7.75391C16.6328 7.66797 16.3867 7.63281 16.1133 7.64844Z" fill="#E07A5F"/>
<path d="M25.6875 9.70508C25.6875 9.70508 25.9023 10.0449 26.332 10.7246C26.332 11.1582 26.1875 11.5137 25.8984 11.791C25.6133 12.0723 25.248 12.2129 24.8027 12.2129C24.3613 12.2129 23.9902 12.082 23.6895 11.8203C23.416 11.5898 23.2539 11.3164 23.2031 11C23.3438 11 23.5234 10.9844 23.7422 10.9531C23.9609 10.918 24.1465 10.8652 24.2988 10.7949C24.4512 10.7246 24.5273 10.6387 24.5273 10.5371C24.5273 10.4941 24.5137 10.4531 24.4863 10.4141C24.0762 10.6289 23.5957 10.7363 23.0449 10.7363C22.123 10.7363 21.3613 10.4805 20.7598 9.96875C20.1621 9.45312 19.8633 8.77734 19.8633 7.94141C19.8633 7.01172 20.1758 6.29688 20.8008 5.79688C21.3867 5.32812 22.1836 5.09375 23.1914 5.09375C23.1914 4.99219 23.1523 4.92578 23.0742 4.89453C23 4.86328 22.8418 4.84766 22.5996 4.84766C22.3613 4.84766 22.0742 4.89648 21.7383 4.99414C21.4062 5.0918 21.1426 5.20508 20.9473 5.33398H19.5996C19.3613 5.00195 19.2422 4.65039 19.2422 4.2793C19.2422 4.08008 19.2715 3.90039 19.3301 3.74023C19.3848 3.57617 19.4746 3.39648 19.5996 3.20117H26.4141C26.5391 3.39258 26.6309 3.56641 26.6895 3.72266C26.748 3.87891 26.7773 4.06445 26.7773 4.2793C26.7773 4.64648 26.6562 4.99805 26.4141 5.33398H25.8574V5.52734C25.8574 5.87109 25.793 6.15039 25.6641 6.36523C25.5039 6.63086 25.2637 6.76367 24.9434 6.76367C24.7988 6.74023 24.6465 6.72852 24.4863 6.72852C23.9785 6.72852 23.5449 6.86523 23.1855 7.13867C22.8301 7.4082 22.6523 7.79102 22.6523 8.28711C22.6523 8.62695 22.7422 8.79688 22.9219 8.79688C22.957 8.79688 22.9863 8.79102 23.0098 8.7793C22.9785 8.67773 22.9629 8.52148 22.9629 8.31055C22.9629 7.88867 23.1211 7.55859 23.4375 7.32031C23.7227 7.10156 24.0742 6.99219 24.4922 6.99219C24.9141 6.99219 25.2852 7.14844 25.6055 7.46094C25.9258 7.76953 26.1523 8.19336 26.2852 8.73242C26.1953 9.0293 25.9961 9.35352 25.6875 9.70508ZM24.0176 3.04297C24.0176 3.00781 24.0059 2.97266 23.9824 2.9375C23.3809 2.9375 22.8613 2.86719 22.4238 2.72656C21.8691 2.55078 21.4688 2.28516 21.2227 1.92969C21.2227 1.35156 21.418 0.886719 21.8086 0.535156C22.1602 0.21875 22.5859 0.0605469 23.0859 0.0605469C23.8516 0.0605469 24.4707 0.380859 24.9434 1.02148C25.3848 1.61914 25.6055 2.36719 25.6055 3.26562V3.42969C25.6055 3.69922 25.5234 3.91406 25.3594 4.07422C25.1953 4.23047 24.9766 4.30859 24.7031 4.30859C24.4258 4.30859 24.207 4.22852 24.0469 4.06836C23.8867 3.9082 23.8066 3.71094 23.8066 3.47656V3.20117C23.9473 3.20117 24.0176 3.14844 24.0176 3.04297ZM29.4141 2.91406C30.2852 2.91406 30.9785 3.19141 31.4941 3.74609C31.5449 3.52734 31.666 3.3457 31.8574 3.20117H34.9688C35.1016 3.4082 35.1934 3.58789 35.2441 3.74023C35.2988 3.89258 35.3262 4.07227 35.3262 4.2793C35.3262 4.65039 35.207 5.00195 34.9688 5.33398H34.6758V8.74414C34.6758 9.00195 34.7012 9.2168 34.752 9.38867C34.8027 9.55664 34.8887 9.71289 35.0098 9.85742C34.9395 10.2285 34.7656 10.5195 34.4883 10.7305C34.2109 10.9414 33.8691 11.0469 33.4629 11.0469C33.2012 11.0469 32.9512 11.002 32.7129 10.9121C32.4785 10.8184 32.2852 10.6738 32.1328 10.4785C32.2266 10.248 32.2734 9.97266 32.2734 9.65234C32.0977 9.5625 31.9453 9.46094 31.8164 9.34766V7.99414C32.0547 7.75586 32.2383 7.45312 32.3672 7.08594C32.4961 6.71875 32.5605 6.37891 32.5605 6.06641C32.5605 5.75391 32.5332 5.55273 32.4785 5.46289C32.4277 5.37305 32.3574 5.32812 32.2676 5.32812C32.2363 5.32812 32.2148 5.33008 32.2031 5.33398C32.2344 5.56055 32.25 5.78711 32.25 6.01367C32.25 6.70898 31.9941 7.33203 31.4824 7.88281C30.9746 8.43359 30.3418 8.73242 29.584 8.7793C29.584 8.93164 29.6797 9.00781 29.8711 9.00781C30.1641 9.00781 30.4727 8.92383 30.7969 8.75586C31.1367 9.18945 31.5254 9.53711 31.9629 9.79883C31.9629 10.2129 31.8105 10.5781 31.5059 10.8945C31.2012 11.2109 30.7754 11.3691 30.2285 11.3691C29.6855 11.3691 29.2109 11.1777 28.8047 10.7949C28.4805 10.4902 28.1094 9.95898 27.6914 9.20117C27.25 9.15039 26.9082 8.98438 26.666 8.70312C26.4277 8.42188 26.3086 8.08398 26.3086 7.68945C26.3086 7.43164 26.377 7.1875 26.5137 6.95703C26.6504 6.72656 26.8262 6.55664 27.041 6.44727C27.1777 6.59961 27.3574 6.71875 27.5801 6.80469C27.8066 6.89062 28.043 6.93359 28.2891 6.93359C28.6836 6.93359 29.0273 6.82031 29.3203 6.59375C29.6172 6.36328 29.7656 6.07422 29.7656 5.72656C29.7656 5.60156 29.7422 5.49414 29.6953 5.4043C29.6484 5.31055 29.5762 5.26367 29.4785 5.26367C29.3105 5.26367 29.2266 5.34766 29.2266 5.51562C29.2266 5.67969 29.2949 5.80859 29.4316 5.90234C29.3926 6.13281 29.2695 6.31836 29.0625 6.45898C28.8555 6.59961 28.6055 6.66992 28.3125 6.66992C27.8398 6.66992 27.4629 6.51367 27.1816 6.20117C26.916 5.91602 26.7832 5.54883 26.7832 5.09961C26.7832 4.50195 27.0176 3.99219 27.4863 3.57031C27.9824 3.13281 28.625 2.91406 29.4141 2.91406ZM34.377 3.20117H35.0859C35.0938 3.13867 35.0977 3.08984 35.0977 3.05469C35.0977 2.88672 35.0566 2.75 34.9746 2.64453C34.8926 2.53516 34.7852 2.48047 34.6523 2.48047C34.5156 2.48047 34.4141 2.51758 34.3477 2.5918C34.2812 2.66602 34.248 2.76758 34.248 2.89648C34.248 3.02539 34.291 3.12695 34.377 3.20117ZM37.7871 8.74414C37.7871 9.00195 37.8125 9.2168 37.8633 9.38867C37.9141 9.55664 38 9.71289 38.1211 9.85742C38.0508 10.2285 37.877 10.5195 37.5996 10.7305C37.3223 10.9414 36.9805 11.0469 36.5742 11.0469C36.2773 11.0469 36.002 10.9902 35.748 10.877C35.4941 10.7598 35.2988 10.5898 35.1621 10.3672C35.2559 10.1797 35.3145 9.96875 35.3379 9.73438C35.2324 9.62891 35.1582 9.5293 35.1152 9.43555C35.0332 9.25977 34.9922 9.02344 34.9922 8.72656V5.33398H33.8145C33.209 5.14648 32.7246 4.82031 32.3613 4.35547C31.9941 3.88672 31.8105 3.37305 31.8105 2.81445C31.8105 2.01367 32.0879 1.38281 32.6426 0.921875C33.1621 0.496094 33.8281 0.283203 34.6406 0.283203C35.1328 0.283203 35.6133 0.394531 36.082 0.617188C36.5547 0.839844 36.9395 1.16406 37.2363 1.58984C37.5332 2.01172 37.6816 2.50391 37.6816 3.06641V3.20117H38.0801C38.2129 3.4082 38.3047 3.58789 38.3555 3.74023C38.4102 3.89258 38.4375 4.07227 38.4375 4.2793C38.4375 4.65039 38.3184 5.00195 38.0801 5.33398H37.7871V8.74414Z" fill="#3D405B"/>
</svg>
